<!DOCTYPE svg PUBLIC "-//W3C//DTD SVG 1.1//EN" "http://www.w3.org/Graphics/SVG/1.1/DTD/svg11.dtd">
<!-- Uploaded to: SVG Repo, www.svgrepo.com, Transformed by: SVG Repo Mixer Tools -->
<svg width="800px" height="800px" viewBox="0 0 24 24" fill="none" xmlns="http://www.w3.org/2000/svg" stroke="#ffffff">
<g id="SVGRepo_bgCarrier" stroke-width="0"/>
<g id="SVGRepo_tracerCarrier" stroke-linecap="round" stroke-linejoin="round"/>
<g id="SVGRepo_iconCarrier"> <path d="M12 6C8.68629 6 6 8.68629 6 12H1C1 5.92487 5.92487 1 12 1C18.0751 1 23 5.92487 23 12C23 18.0751 18.0751 23 12 23V18C15.3137 18 18 15.3137 18 12C18 8.68629 15.3137 6 12 6Z" fill="#ffffff"/> <path d="M7 18V13H12V18H7Z" fill="#ffffff"/> <path d="M3 18V22H7V18H3Z" fill="#ffffff"/> <path d="M3 18H1V16H3V18Z" fill="#ffffff"/> </g>
</svg>